<svg width="512" height="512" viewBox="0 0 512 512" xmlns="http://www.w3.org/2000/svg">
  <defs>
    <radialGradient id="globeGrad" cx="35%" cy="30%" r="75%">
      <stop offset="0%"   stop-color="#fcd34d"/>
      <stop offset="45%"  stop-color="#f59e0b"/>
      <stop offset="100%" stop-color="#431407"/>
    </radialGradient>
    <linearGradient id="ringGrad" x1="0%" y1="0%" x2="100%" y2="100%">
      <stop offset="0%"   stop-color="#fbbf24"/>
      <stop offset="100%" stop-color="#ea580c"/>
    </linearGradient>
    <clipPath id="globeClip">
      <circle cx="256" cy="256" r="208"/>
    </clipPath>
  </defs>

  <circle cx="256" cy="256" r="230" fill="none" stroke="url(#ringGrad)" stroke-width="2" opacity="0.35"/>
  <circle cx="256" cy="256" r="208" fill="url(#globeGrad)"/>

  <g clip-path="url(#globeClip)" stroke="#fde68a" stroke-width="1.4" fill="none" opacity="0.5">
    <ellipse cx="256" cy="256" rx="208" ry="70"/>
    <ellipse cx="256" cy="256" rx="208" ry="140"/>
    <ellipse cx="256" cy="256" rx="70"  ry="208"/>
    <ellipse cx="256" cy="256" rx="140" ry="208"/>
    <line x1="48"  y1="256" x2="464" y2="256"/>
    <line x1="256" y1="48"  x2="256" y2="464"/>
  </g>

  <g clip-path="url(#globeClip)" fill="#fff8e7" opacity="0.85">
    <circle cx="190" cy="190" r="3"/><circle cx="205" cy="185" r="3"/><circle cx="180" cy="205" r="3"/>
    <circle cx="215" cy="205" r="3"/><circle cx="195" cy="220" r="3"/><circle cx="230" cy="195" r="3"/>
    <circle cx="330" cy="200" r="3"/><circle cx="345" cy="215" r="3"/><circle cx="320" cy="220" r="3"/>
    <circle cx="355" cy="230" r="3"/><circle cx="340" cy="245" r="3"/>
    <circle cx="230" cy="320" r="3"/><circle cx="245" cy="335" r="3"/><circle cx="215" cy="335" r="3"/>
    <circle cx="255" cy="355" r="3"/><circle cx="235" cy="365" r="3"/>
    <circle cx="310" cy="310" r="3"/><circle cx="325" cy="325" r="3"/><circle cx="300" cy="335" r="3"/>
  </g>

  <ellipse cx="190" cy="170" rx="90" ry="60" fill="#FFFFFF" opacity="0.14"/>

  <!-- C mark -->
  <circle cx="256" cy="256" r="128" fill="none" stroke="#FFF8F0" stroke-width="58"
          stroke-dasharray="646 158" stroke-dashoffset="725"/>
</svg>
